<svg width="420" height="86" viewBox="0 0 420 86" fill="none" xmlns="http://www.w3.org/2000/svg">
<path d="M60.5707 37.5714C60.5707 26.8176 51.8219 18.0688 41.0681 18.0688H18.0009C17.9723 18.0688 17.949 18.0921 17.949 18.1208V67.9341C17.949 67.9628 17.9723 67.9861 18.0009 67.9861H27.9611C27.9898 67.9861 28.0131 67.9628 28.0131 67.9341V57.0739H41.0681C41.3974 57.0739 41.7283 57.0656 42.0517 57.049C45.5398 56.8752 48.914 55.7682 51.8094 53.8481C57.2954 50.2282 60.5707 44.1436 60.5707 37.5714V37.5714ZM28.0131 28.1329H41.0681C46.2727 28.1329 50.5066 32.3672 50.5066 37.5714C50.5066 40.6318 49.0122 43.5142 46.5088 45.2822C44.92 46.4125 43.0385 47.0099 41.0681 47.0099H28.0131V28.1329Z" fill="url(#paint0_linear_4_32)"/>
<path d="M91.13 67.9861C104.891 67.9861 116.087 56.7888 116.087 43.0254C116.087 29.264 104.891 18.0688 91.13 18.0688C77.367 18.0688 66.1693 29.2644 66.1693 43.0254C66.1693 56.7888 77.3666 67.9861 91.13 67.9861ZM76.2376 43.0254C76.2376 34.8136 82.9183 28.1329 91.13 28.1329C99.3418 28.1329 106.022 34.8136 106.022 43.0254C106.022 51.2371 99.3418 57.9178 91.13 57.9178C82.9183 57.9178 76.2376 51.2371 76.2376 43.0254Z" fill="url(#paint1_linear_4_32)"/>
<path d="M142.789 34.3523L131.989 67.9155C131.984 67.9313 131.986 67.9484 131.996 67.9617C132.006 67.975 132.021 67.9833 132.038 67.9833H153.638C153.654 67.9833 153.67 67.975 153.68 67.9617C153.689 67.9484 153.692 67.9313 153.687 67.9155L142.887 34.3523C142.874 34.3091 142.802 34.3091 142.788 34.3523H142.789ZM137.65 18.0877C137.64 18.0744 137.625 18.0661 137.608 18.0661H116.009C115.992 18.0661 115.977 18.0744 115.967 18.0877C115.957 18.101 115.954 18.118 115.959 18.1338L126.759 51.6974C126.766 51.7191 126.786 51.7336 126.809 51.7336C126.831 51.7336 126.851 51.7191 126.858 51.6974L137.658 18.1338C137.663 18.118 137.66 18.101 137.65 18.0877V18.0877ZM169.709 18.0877C169.699 18.0744 169.684 18.0661 169.667 18.0661H148.067C148.051 18.0661 148.035 18.0744 148.025 18.0877C148.016 18.101 148.013 18.118 148.018 18.1338L158.818 51.6974C158.825 51.7191 158.845 51.7336 158.867 51.7336C158.89 51.7336 158.91 51.7191 158.917 51.6974L169.717 18.1338C169.722 18.118 169.719 18.101 169.709 18.0877H169.709ZM222.645 28.1331C222.674 28.1331 222.697 28.1098 222.697 28.0811V18.1184C222.697 18.0897 222.674 18.0665 222.645 18.0665H180.126C180.123 18.0665 180.12 18.0694 180.117 18.0702C180.108 18.0719 180.101 18.074 180.094 18.0798C180.09 18.0827 180.088 18.0868 180.086 18.091C180.083 18.0951 180.078 18.0976 180.077 18.1022L164.047 67.9155C164.042 67.9313 164.045 67.9484 164.055 67.9617C164.065 67.975 164.08 67.9833 164.097 67.9833H180.125C180.126 67.9833 180.126 67.9837 180.126 67.9837H222.645C222.674 67.9837 222.697 67.9604 222.697 67.9318V57.9691C222.697 57.9404 222.674 57.9171 222.645 57.9171H190.141V48.0584H212.686C212.715 48.0584 212.738 48.0351 212.738 48.0064V38.0438C212.738 38.0151 212.715 37.9918 212.686 37.9918H190.141V28.1331H222.645Z" fill="url(#paint2_linear_4_32)"/>
<path d="M229.054 67.9861H239.014C239.043 67.9861 239.066 67.9628 239.066 67.9341V57.0739H252.121C252.44 57.0739 252.759 57.0652 253.073 57.0498L259.821 67.9615C259.83 67.9769 259.847 67.9861 259.865 67.9861H271.571C271.59 67.9861 271.607 67.9757 271.616 67.9595C271.625 67.9428 271.625 67.9229 271.615 67.9071L262.904 53.8182C268.363 50.195 271.623 44.1266 271.623 37.5714C271.623 26.8177 262.874 18.0688 252.12 18.0688H229.053C229.025 18.0688 229.001 18.0921 229.001 18.1208V67.9341C229.002 67.9628 229.025 67.9861 229.054 67.9861H229.054ZM257.562 45.2822C255.973 46.4125 254.091 47.0099 252.121 47.0099H239.066V28.1329H252.121C257.325 28.1329 261.559 32.3672 261.559 37.5714C261.559 40.6322 260.065 43.5147 257.562 45.2822V45.2822Z" fill="url(#paint3_linear_4_32)"/>
<path d="M277.986 67.9848H287.949C287.977 67.9848 288.001 67.9615 288.001 67.9329V48.0595H310.546C310.574 48.0595 310.598 48.0362 310.598 48.0075V38.0449C310.598 38.0162 310.574 37.9929 310.546 37.9929H288.001V28.1342H320.505C320.533 28.1342 320.557 28.1109 320.557 28.0822V18.1195C320.557 18.0909 320.533 18.0676 320.505 18.0676H277.986C277.957 18.0676 277.934 18.0909 277.934 18.1195V67.9329C277.934 67.9615 277.957 67.9848 277.986 67.9848V67.9848Z" fill="url(#paint4_linear_4_32)"/>
<path d="M349.572 46.675V18.1189C349.572 18.0902 349.549 18.067 349.52 18.067H326.919C326.89 18.067 326.867 18.0902 326.867 18.1189V46.675C326.867 52.9338 331.959 58.0257 338.217 58.0257C344.478 58.0257 349.572 52.9338 349.572 46.675H349.572ZM401.999 57.9185H369.495V18.1198C369.495 18.0911 369.472 18.0678 369.443 18.0678H359.48C359.452 18.0678 359.428 18.0911 359.428 18.1198V46.6742C359.428 58.3678 349.915 67.8811 338.221 67.8811C338.193 67.8811 338.17 67.9044 338.17 67.9331C338.17 67.9618 338.193 67.985 338.221 67.985H401.999C402.027 67.985 402.051 67.9618 402.051 67.9331V57.9704C402.051 57.9417 402.027 57.9185 401.999 57.9185V57.9185Z" fill="url(#paint5_linear_4_32)"/>
<path fill-rule="evenodd" clip-rule="evenodd" d="M0 78.389C0 80.4729 0.736651 82.2517 2.20996 83.7253L2.2106 83.7262C3.68396 85.1986 5.46229 85.9348 7.54559 85.9348H412.454C414.538 85.9348 416.316 85.1986 417.79 83.7262C419.263 82.252 420 80.4729 420 78.389V7.61099C420 5.5277 419.263 3.74923 417.79 2.27563C416.316 0.802025 414.538 0.0652313 412.454 0.0652313H7.54559C5.46187 0.0652313 3.68333 0.802025 2.20996 2.27563C0.736661 3.74924 0 5.5277 0 7.61099V78.389ZM5.76783 80.1678L5.76719 80.1669C5.27664 79.6761 5.03136 79.0834 5.03136 78.389V7.61099C5.03136 6.91656 5.27685 6.32394 5.76783 5.83315C6.25875 5.34235 6.85133 5.09695 7.54558 5.09695H412.454C413.149 5.09695 413.741 5.34236 414.232 5.83315C414.723 6.32395 414.968 6.91656 414.968 7.61099V78.389C414.968 79.084 414.723 79.6767 414.232 80.1669C413.741 80.6577 413.149 80.903 412.454 80.903H7.54558C6.85133 80.903 6.25875 80.6579 5.76783 80.1678V80.1678Z" fill="url(#paint6_linear_4_32)"/>
<defs>
<linearGradient id="paint0_linear_4_32" x1="-5.36446e-06" y1="43" x2="420" y2="43" gradientUnits="userSpaceOnUse">
<stop stop-color="#8360C3"/>
<stop offset="1" stop-color="#2EBF91"/>
</linearGradient>
<linearGradient id="paint1_linear_4_32" x1="1.5493e-05" y1="43" x2="420" y2="43" gradientUnits="userSpaceOnUse">
<stop stop-color="#8360C3"/>
<stop offset="1" stop-color="#2EBF91"/>
</linearGradient>
<linearGradient id="paint2_linear_4_32" x1="-3.96158e-07" y1="43" x2="420" y2="43" gradientUnits="userSpaceOnUse">
<stop stop-color="#8360C3"/>
<stop offset="1" stop-color="#2EBF91"/>
</linearGradient>
<linearGradient id="paint3_linear_4_32" x1="5.09134e-07" y1="43" x2="420" y2="43" gradientUnits="userSpaceOnUse">
<stop stop-color="#8360C3"/>
<stop offset="1" stop-color="#2EBF91"/>
</linearGradient>
<linearGradient id="paint4_linear_4_32" x1="-4.48133e-05" y1="43" x2="420" y2="43" gradientUnits="userSpaceOnUse">
<stop stop-color="#8360C3"/>
<stop offset="1" stop-color="#2EBF91"/>
</linearGradient>
<linearGradient id="paint5_linear_4_32" x1="-4.64476e-05" y1="43" x2="420" y2="43" gradientUnits="userSpaceOnUse">
<stop stop-color="#8360C3"/>
<stop offset="1" stop-color="#2EBF91"/>
</linearGradient>
<linearGradient id="paint6_linear_4_32" x1="0" y1="43" x2="420" y2="43" gradientUnits="userSpaceOnUse">
<stop stop-color="#8360C3"/>
<stop offset="1" stop-color="#2EBF91"/>
</linearGradient>
</defs>
</svg>
